<?xml version="1.0" encoding="UTF-8" standalone="no"?><svg xmlns="http://www.w3.org/2000/svg" xmlns:xlink="http://www.w3.org/1999/xlink" contentScriptType="application/ecmascript" contentStyleType="text/css" height="395px" preserveAspectRatio="none" style="width:418px;height:395px;" version="1.1" viewBox="0 0 418 395" width="418px" zoomAndPan="magnify"><defs><filter height="300%" id="f11py23r3dzeol" width="300%" x="-1" y="-1"><feGaussianBlur result="blurOut" stdDeviation="2.0"/><feColorMatrix in="blurOut" result="blurOut2" type="matrix" values="0 0 0 0 0 0 0 0 0 0 0 0 0 0 0 0 0 0 .4 0"/><feOffset dx="4.0" dy="4.0" in="blurOut2" result="blurOut3"/><feBlend in="SourceGraphic" in2="blurOut3" mode="normal"/></filter></defs><g><!--cluster 日程管理--><rect fill="#FFFFFF" filter="url(#f11py23r3dzeol)" height="360" style="stroke: #000000; stroke-width: 1.5;" width="324" x="83" y="24"/><text fill="#000000" font-family="sans-serif" font-size="14" font-weight="bold" lengthAdjust="spacingAndGlyphs" textLength="60" x="215" y="42.0439">日程管理</text><ellipse cx="141.598" cy="215.02" fill="#FEFECE" filter="url(#f11py23r3dzeol)" rx="42.598" ry="16.52" style="stroke: #A80036; stroke-width: 1.5;"/><text fill="#000000" font-family="sans-serif" font-size="14" lengthAdjust="spacingAndGlyphs" textLength="56" x="113.598" y="221.08">任务管理</text><ellipse cx="338.598" cy="351.02" fill="#FEFECE" filter="url(#f11py23r3dzeol)" rx="42.598" ry="16.52" style="stroke: #A80036; stroke-width: 1.5;"/><text fill="#000000" font-family="sans-serif" font-size="14" lengthAdjust="spacingAndGlyphs" textLength="56" x="310.598" y="357.08">删除任务</text><ellipse cx="338.598" cy="283.02" fill="#FEFECE" filter="url(#f11py23r3dzeol)" rx="42.598" ry="16.52" style="stroke: #A80036; stroke-width: 1.5;"/><text fill="#000000" font-family="sans-serif" font-size="14" lengthAdjust="spacingAndGlyphs" textLength="56" x="310.598" y="289.08">编辑任务</text><ellipse cx="338.4975" cy="215.02" fill="#FEFECE" filter="url(#f11py23r3dzeol)" rx="52.4975" ry="16.52" style="stroke: #A80036; stroke-width: 1.5;"/><text fill="#000000" font-family="sans-serif" font-size="14" lengthAdjust="spacingAndGlyphs" textLength="70" x="303.4975" y="221.08">启动番茄钟</text><ellipse cx="338.598" cy="147.02" fill="#FEFECE" filter="url(#f11py23r3dzeol)" rx="42.598" ry="16.52" style="stroke: #A80036; stroke-width: 1.5;"/><text fill="#000000" font-family="sans-serif" font-size="14" lengthAdjust="spacingAndGlyphs" textLength="56" x="310.598" y="153.08">查看任务</text><ellipse cx="338.598" cy="79.02" fill="#FEFECE" filter="url(#f11py23r3dzeol)" rx="42.598" ry="16.52" style="stroke: #A80036; stroke-width: 1.5;"/><text fill="#000000" font-family="sans-serif" font-size="14" lengthAdjust="spacingAndGlyphs" textLength="56" x="310.598" y="85.08">添加任务</text><!--entity parent--><ellipse cx="21" cy="182" fill="#FEFECE" filter="url(#f11py23r3dzeol)" rx="8" ry="8" style="stroke: #A80036; stroke-width: 2.0;"/><path d="M21,190 L21,217 M8,198 L34,198 M21,217 L8,232 M21,217 L34,232 " fill="none" filter="url(#f11py23r3dzeol)" style="stroke: #A80036; stroke-width: 2.0;"/><text fill="#000000" font-family="sans-serif" font-size="14" lengthAdjust="spacingAndGlyphs" textLength="28" x="7" y="255.0439">家长</text><!--link parent to task--><path d="M36.0588,215 C51.447,215 76.8479,215 98.7461,215 " fill="none" id="parent-task" style="stroke: #A80036; stroke-width: 1.0;"/><!--link task to 删除任务--><path d="M156.899,230.514 C170.712,244.886 192.576,266.339 214,282 C243.493,303.5582 280.406,323.3584 306.16,336.1656 " fill="none" id="task-删除任务" style="stroke: #A80036; stroke-width: 1.0; stroke-dasharray: 7.0,7.0;"/><polygon fill="#A80036" points="310.835,338.4745,304.5351,330.9041,306.3515,336.2614,300.9941,338.0777,310.835,338.4745" style="stroke: #A80036; stroke-width: 1.0;"/><text fill="#000000" font-family="sans-serif" font-size="13" lengthAdjust="spacingAndGlyphs" textLength="40" x="215" y="278.8979">«包含»</text><!--link task to 编辑任务--><path d="M172.318,226.569 C185.108,231.45 200.244,237.122 214,242 C242.844,252.229 275.745,263.114 300.331,271.095 " fill="none" id="task-编辑任务" style="stroke: #A80036; stroke-width: 1.0; stroke-dasharray: 7.0,7.0;"/><polygon fill="#A80036" points="305.134,272.652,297.8052,266.0726,300.3775,271.1108,295.3393,273.683,305.134,272.652" style="stroke: #A80036; stroke-width: 1.0;"/><text fill="#000000" font-family="sans-serif" font-size="13" lengthAdjust="spacingAndGlyphs" textLength="40" x="215" y="238.8979">«包含»</text><!--link task to 启动番茄钟--><path d="M184.332,215 C212.366,215 249.634,215 280.389,215 " fill="none" id="task-启动番茄钟" style="stroke: #A80036; stroke-width: 1.0; stroke-dasharray: 7.0,7.0;"/><polygon fill="#A80036" points="285.659,215,276.659,211,280.659,215,276.659,219,285.659,215" style="stroke: #A80036; stroke-width: 1.0;"/><text fill="#000000" font-family="sans-serif" font-size="13" lengthAdjust="spacingAndGlyphs" textLength="40" x="215" y="211.8979">«包含»</text><!--link task to 查看任务--><path d="M173.83,204.075 C208.656,191.93 264.807,172.349 301.436,159.576 " fill="none" id="task-查看任务" style="stroke: #A80036; stroke-width: 1.0; stroke-dasharray: 7.0,7.0;"/><polygon fill="#A80036" points="306.248,157.898,296.4327,157.0858,301.527,159.545,299.0679,164.6393,306.248,157.898" style="stroke: #A80036; stroke-width: 1.0;"/><text fill="#000000" font-family="sans-serif" font-size="13" lengthAdjust="spacingAndGlyphs" textLength="40" x="215" y="172.8979">«包含»</text><!--link task to 添加任务--><path d="M157.23,199.495 C171.1,185.376 192.85,164.438 214,149 C243.609,127.387 280.504,107.258 306.221,94.185 " fill="none" id="task-添加任务" style="stroke: #A80036; stroke-width: 1.0; stroke-dasharray: 7.0,7.0;"/><polygon fill="#A80036" points="310.889,91.827,301.0522,92.3144,306.426,94.0813,304.6591,99.4552,310.889,91.827" style="stroke: #A80036; stroke-width: 1.0;"/><text fill="#000000" font-family="sans-serif" font-size="13" lengthAdjust="spacingAndGlyphs" textLength="40" x="215" y="119.8979">«包含»</text><!--
@startuml chap3-task


left to right direction


actor 家长 as parent

rectangle 日程管理 {
  usecase 任务管理 as task
  parent - - (task)
  (task) ..> (删除任务) : <<包含>>
  (task) ..> (编辑任务) : <<包含>>
  (task) ..> (启动番茄钟) : <<包含>>
  (task) ..> (查看任务) : <<包含>>
  (task) ..> (添加任务) : <<包含>>
}

@enduml

PlantUML version 1.2019.06(Sat May 25 01:10:25 CST 2019)
(GPL source distribution)
Java Runtime: Java(TM) SE Runtime Environment
JVM: Java HotSpot(TM) 64-Bit Server VM
Java Version: 1.8.0_212-b10
Operating System: Windows 10
OS Version: 10.0
Default Encoding: GBK
Language: en
Country: US
--></g></svg>