<?xml version="1.0" encoding="UTF-8" standalone="no"?><svg xmlns="http://www.w3.org/2000/svg" xmlns:xlink="http://www.w3.org/1999/xlink" contentScriptType="application/ecmascript" contentStyleType="text/css" height="704px" preserveAspectRatio="none" style="width:463px;height:704px;" version="1.1" viewBox="0 0 463 704" width="463px" zoomAndPan="magnify"><defs><filter height="300%" id="frw35jntfv0zf" width="300%" x="-1" y="-1"><feGaussianBlur result="blurOut" stdDeviation="2.0"/><feColorMatrix in="blurOut" result="blurOut2" type="matrix" values="0 0 0 0 0 0 0 0 0 0 0 0 0 0 0 0 0 0 .4 0"/><feOffset dx="4.0" dy="4.0" in="blurOut2" result="blurOut3"/><feBlend in="SourceGraphic" in2="blurOut3" mode="normal"/></filter></defs><g><!--entity sub2--><rect fill="#FEFECE" filter="url(#frw35jntfv0zf)" height="25.1201" style="stroke: #000000; stroke-width: 1.5;" width="104" x="6" y="428"/><text fill="#000000" font-family="sans-serif" font-size="14" lengthAdjust="spacingAndGlyphs" textLength="84" x="16" y="447.0439">积分管理模块</text><!--entity reward--><rect fill="#FEFECE" filter="url(#frw35jntfv0zf)" height="25.1201" style="stroke: #000000; stroke-width: 1.5;" width="104" x="170" y="158"/><text fill="#000000" font-family="sans-serif" font-size="14" lengthAdjust="spacingAndGlyphs" textLength="84" x="180" y="177.0439">兑换奖励管理</text><!--entity daily--><rect fill="#FEFECE" filter="url(#frw35jntfv0zf)" height="25.1201" style="stroke: #000000; stroke-width: 1.5;" width="104" x="170" y="428"/><text fill="#000000" font-family="sans-serif" font-size="14" lengthAdjust="spacingAndGlyphs" textLength="84" x="180" y="447.0439">日常奖惩管理</text><!--entity record--><rect fill="#FEFECE" filter="url(#frw35jntfv0zf)" height="25.1201" style="stroke: #000000; stroke-width: 1.5;" width="104" x="170" y="608"/><text fill="#000000" font-family="sans-serif" font-size="14" lengthAdjust="spacingAndGlyphs" textLength="84" x="180" y="627.0439">历史记录查询</text><!--entity add1--><rect fill="#FEFECE" filter="url(#frw35jntfv0zf)" height="25.1201" style="stroke: #000000; stroke-width: 1.5;" width="76" x="355" y="8"/><text fill="#000000" font-family="sans-serif" font-size="14" lengthAdjust="spacingAndGlyphs" textLength="56" x="365" y="27.0439">奖励添加</text><!--entity view1--><rect fill="#FEFECE" filter="url(#frw35jntfv0zf)" height="25.1201" style="stroke: #000000; stroke-width: 1.5;" width="76" x="355" y="68"/><text fill="#000000" font-family="sans-serif" font-size="14" lengthAdjust="spacingAndGlyphs" textLength="56" x="365" y="87.0439">奖励查看</text><!--entity edit1--><rect fill="#FEFECE" filter="url(#frw35jntfv0zf)" height="25.1201" style="stroke: #000000; stroke-width: 1.5;" width="76" x="355" y="128"/><text fill="#000000" font-family="sans-serif" font-size="14" lengthAdjust="spacingAndGlyphs" textLength="56" x="365" y="147.0439">奖励编辑</text><!--entity del1--><rect fill="#FEFECE" filter="url(#frw35jntfv0zf)" height="25.1201" style="stroke: #000000; stroke-width: 1.5;" width="76" x="355" y="188"/><text fill="#000000" font-family="sans-serif" font-size="14" lengthAdjust="spacingAndGlyphs" textLength="56" x="365" y="207.0439">奖励删除</text><!--entity rec1--><rect fill="#FEFECE" filter="url(#frw35jntfv0zf)" height="25.1201" style="stroke: #000000; stroke-width: 1.5;" width="76" x="355" y="248"/><text fill="#000000" font-family="sans-serif" font-size="14" lengthAdjust="spacingAndGlyphs" textLength="56" x="365" y="267.0439">奖励兑换</text><!--entity add2--><rect fill="#FEFECE" filter="url(#frw35jntfv0zf)" height="25.1201" style="stroke: #000000; stroke-width: 1.5;" width="76" x="355" y="308"/><text fill="#000000" font-family="sans-serif" font-size="14" lengthAdjust="spacingAndGlyphs" textLength="56" x="365" y="327.0439">奖惩添加</text><!--entity view2--><rect fill="#FEFECE" filter="url(#frw35jntfv0zf)" height="25.1201" style="stroke: #000000; stroke-width: 1.5;" width="76" x="355" y="368"/><text fill="#000000" font-family="sans-serif" font-size="14" lengthAdjust="spacingAndGlyphs" textLength="56" x="365" y="387.0439">奖惩查看</text><!--entity edit2--><rect fill="#FEFECE" filter="url(#frw35jntfv0zf)" height="25.1201" style="stroke: #000000; stroke-width: 1.5;" width="76" x="355" y="428"/><text fill="#000000" font-family="sans-serif" font-size="14" lengthAdjust="spacingAndGlyphs" textLength="56" x="365" y="447.0439">奖惩编辑</text><!--entity del2--><rect fill="#FEFECE" filter="url(#frw35jntfv0zf)" height="25.1201" style="stroke: #000000; stroke-width: 1.5;" width="76" x="355" y="488"/><text fill="#000000" font-family="sans-serif" font-size="14" lengthAdjust="spacingAndGlyphs" textLength="56" x="365" y="507.0439">奖惩删除</text><!--entity rec2--><rect fill="#FEFECE" filter="url(#frw35jntfv0zf)" height="25.1201" style="stroke: #000000; stroke-width: 1.5;" width="76" x="355" y="548"/><text fill="#000000" font-family="sans-serif" font-size="14" lengthAdjust="spacingAndGlyphs" textLength="56" x="365" y="567.0439">奖惩记录</text><!--entity all--><rect fill="#FEFECE" filter="url(#frw35jntfv0zf)" height="25.1201" style="stroke: #000000; stroke-width: 1.5;" width="104" x="341" y="608"/><text fill="#000000" font-family="sans-serif" font-size="14" lengthAdjust="spacingAndGlyphs" textLength="84" x="351" y="627.0439">显示所有记录</text><!--entity search--><rect fill="#FEFECE" filter="url(#frw35jntfv0zf)" height="25.1201" style="stroke: #000000; stroke-width: 1.5;" width="118" x="334" y="668"/><text fill="#000000" font-family="sans-serif" font-size="14" lengthAdjust="spacingAndGlyphs" textLength="98" x="344" y="687.0439">搜索栏过滤记录</text><!--link sub2 to reward--><path d="M66.5963,427.839 C92.9573,383.905 180.522,237.963 210.684,187.693 " fill="none" id="sub2-reward" style="stroke: #A80036; stroke-width: 1.0;"/><polygon fill="#A80036" points="213.42,183.133,205.359,188.7917,210.8471,187.4202,212.2186,192.9083,213.42,183.133" style="stroke: #A80036; stroke-width: 1.0;"/><!--link sub2 to daily--><path d="M110.258,440.5 C127.479,440.5 146.784,440.5 164.392,440.5 " fill="none" id="sub2-daily" style="stroke: #A80036; stroke-width: 1.0;"/><polygon fill="#A80036" points="169.798,440.5,160.798,436.5,164.798,440.5,160.798,444.5,169.798,440.5" style="stroke: #A80036; stroke-width: 1.0;"/><!--link sub2 to record--><path d="M70.3915,453.157 C98.905,484.839 173.374,567.583 205.68,603.4772 " fill="none" id="sub2-record" style="stroke: #A80036; stroke-width: 1.0;"/><polygon fill="#A80036" points="209.404,607.6158,206.3555,598.2506,206.0588,603.8997,200.4097,603.603,209.404,607.6158" style="stroke: #A80036; stroke-width: 1.0;"/><!--link reward to add1--><path d="M232.216,157.94 C249.888,134.506 290.65,83.512 334,50.5 C341.382,44.879 349.972,39.785 358.243,35.457 " fill="none" id="reward-add1" style="stroke: #A80036; stroke-width: 1.0;"/><polygon fill="#A80036" points="362.795,33.133,352.9605,33.6644,358.3422,35.4073,356.5993,40.789,362.795,33.133" style="stroke: #A80036; stroke-width: 1.0;"/><!--link reward to view1--><path d="M245.894,157.967 C268.292,145.743 303.404,126.68 334,110.5 C343.387,105.536 353.67,100.188 362.937,95.401 " fill="none" id="reward-view1" style="stroke: #A80036; stroke-width: 1.0;"/><polygon fill="#A80036" points="367.396,93.101,357.5637,93.6726,362.9525,95.3935,361.2317,100.7822,367.396,93.101" style="stroke: #A80036; stroke-width: 1.0;"/><!--link reward to edit1--><path d="M274.164,161.418 C298.37,157.121 326.922,152.052 349.858,147.981 " fill="none" id="reward-edit1" style="stroke: #A80036; stroke-width: 1.0;"/><polygon fill="#A80036" points="354.961,147.075,345.4002,144.7104,350.038,147.9493,346.7991,152.5871,354.961,147.075" style="stroke: #A80036; stroke-width: 1.0;"/><!--link reward to del1--><path d="M274.164,179.582 C298.37,183.879 326.922,188.948 349.858,193.019 " fill="none" id="reward-del1" style="stroke: #A80036; stroke-width: 1.0;"/><polygon fill="#A80036" points="354.961,193.925,346.7991,188.4129,350.038,193.0507,345.4002,196.2896,354.961,193.925" style="stroke: #A80036; stroke-width: 1.0;"/><!--link reward to rec1--><path d="M245.894,183.033 C268.292,195.257 303.404,214.32 334,230.5 C343.387,235.464 353.67,240.812 362.937,245.599 " fill="none" id="reward-rec1" style="stroke: #A80036; stroke-width: 1.0;"/><polygon fill="#A80036" points="367.396,247.899,361.2317,240.2178,362.9525,245.6065,357.5637,247.3274,367.396,247.899" style="stroke: #A80036; stroke-width: 1.0;"/><!--link daily to add2--><path d="M236.659,427.877 C256.935,409.51 296.63,374.948 334,350.5 C342.165,345.159 351.395,340.018 360.051,335.547 " fill="none" id="daily-add2" style="stroke: #A80036; stroke-width: 1.0;"/><polygon fill="#A80036" points="364.791,333.135,354.9557,333.6514,360.3347,335.4024,358.5836,340.7814,364.791,333.135" style="stroke: #A80036; stroke-width: 1.0;"/><!--link daily to view2--><path d="M258.428,427.922 C285.694,418.242 323.391,404.858 351.788,394.777 " fill="none" id="daily-view2" style="stroke: #A80036; stroke-width: 1.0;"/><polygon fill="#A80036" points="356.619,393.061,346.7994,392.3029,351.9072,394.734,349.4761,399.8418,356.619,393.061" style="stroke: #A80036; stroke-width: 1.0;"/><!--link daily to edit2--><path d="M274.164,440.5 C298.37,440.5 326.922,440.5 349.858,440.5 " fill="none" id="daily-edit2" style="stroke: #A80036; stroke-width: 1.0;"/><polygon fill="#A80036" points="354.961,440.5,345.961,436.5,349.961,440.5,345.961,444.5,354.961,440.5" style="stroke: #A80036; stroke-width: 1.0;"/><!--link daily to del2--><path d="M258.428,453.078 C285.694,462.758 323.391,476.142 351.788,486.223 " fill="none" id="daily-del2" style="stroke: #A80036; stroke-width: 1.0;"/><polygon fill="#A80036" points="356.619,487.939,349.4761,481.1582,351.9072,486.266,346.7994,488.6971,356.619,487.939" style="stroke: #A80036; stroke-width: 1.0;"/><!--link daily to rec2--><path d="M236.659,453.123 C256.935,471.49 296.63,506.052 334,530.5 C342.165,535.841 351.395,540.982 360.051,545.453 " fill="none" id="daily-rec2" style="stroke: #A80036; stroke-width: 1.0;"/><polygon fill="#A80036" points="364.791,547.865,358.5836,540.2186,360.3347,545.5976,354.9557,547.3486,364.791,547.865" style="stroke: #A80036; stroke-width: 1.0;"/><!--link record to all--><path d="M274.164,620.5 C293.599,620.5 315.835,620.5 335.717,620.5 " fill="none" id="record-all" style="stroke: #A80036; stroke-width: 1.0;"/><polygon fill="#A80036" points="340.718,620.5,331.718,616.5,335.718,620.5,331.718,624.5,340.718,620.5" style="stroke: #A80036; stroke-width: 1.0;"/><!--link record to search--><path d="M258.428,633.078 C285.694,642.7582 323.391,656.1419 351.788,666.2234 " fill="none" id="record-search" style="stroke: #A80036; stroke-width: 1.0;"/><polygon fill="#A80036" points="356.619,667.9386,349.4759,661.158,351.9071,666.2657,346.7994,668.6969,356.619,667.9386" style="stroke: #A80036; stroke-width: 1.0;"/><!--
@startuml chap4-credit

left to right direction

card 积分管理模块 as sub2

card 兑换奖励管理 as reward
card 日常奖惩管理 as daily
card 历史记录查询 as record

sub2 - -> reward
sub2 - -> daily
sub2 - -> record

card 奖励添加 as add1
card 奖励查看 as view1
card 奖励编辑 as edit1
card 奖励删除 as del1
card 奖励兑换 as rec1

reward - -> add1
reward - -> view1
reward - -> edit1
reward - -> del1
reward - -> rec1

card 奖惩添加 as add2
card 奖惩查看 as view2
card 奖惩编辑 as edit2
card 奖惩删除 as del2
card 奖惩记录 as rec2

daily - -> add2
daily - -> view2
daily - -> edit2
daily - -> del2
daily - -> rec2

card 显示所有记录 as all
card 搜索栏过滤记录 as search

record - -> all
record - -> search

@enduml

PlantUML version 1.2019.06(Sat May 25 01:10:25 CST 2019)
(GPL source distribution)
Java Runtime: Java(TM) SE Runtime Environment
JVM: Java HotSpot(TM) 64-Bit Server VM
Java Version: 1.8.0_212-b10
Operating System: Windows 10
OS Version: 10.0
Default Encoding: GBK
Language: en
Country: US
--></g></svg>