<?xml version="1.0" encoding="UTF-8" standalone="no"?><svg xmlns="http://www.w3.org/2000/svg" xmlns:xlink="http://www.w3.org/1999/xlink" contentScriptType="application/ecmascript" contentStyleType="text/css" height="464px" preserveAspectRatio="none" style="width:477px;height:464px;" version="1.1" viewBox="0 0 477 464" width="477px" zoomAndPan="magnify"><defs><filter height="300%" id="f1odyp1wg8entu" width="300%" x="-1" y="-1"><feGaussianBlur result="blurOut" stdDeviation="2.0"/><feColorMatrix in="blurOut" result="blurOut2" type="matrix" values="0 0 0 0 0 0 0 0 0 0 0 0 0 0 0 0 0 0 .4 0"/><feOffset dx="4.0" dy="4.0" in="blurOut2" result="blurOut3"/><feBlend in="SourceGraphic" in2="blurOut3" mode="normal"/></filter></defs><g><!--entity sys--><rect fill="#FEFECE" filter="url(#f1odyp1wg8entu)" height="25.1201" style="stroke: #000000; stroke-width: 1.5;" width="132" x="6" y="188"/><text fill="#000000" font-family="sans-serif" font-size="14" lengthAdjust="spacingAndGlyphs" textLength="112" x="16" y="207.0439">儿童习惯养成系统</text><!--entity sub1--><rect fill="#FEFECE" filter="url(#f1odyp1wg8entu)" height="25.1201" style="stroke: #000000; stroke-width: 1.5;" width="104" x="198" y="68"/><text fill="#000000" font-family="sans-serif" font-size="14" lengthAdjust="spacingAndGlyphs" textLength="84" x="208" y="87.0439">日程管理模块</text><!--entity sub2--><rect fill="#FEFECE" filter="url(#f1odyp1wg8entu)" height="25.1201" style="stroke: #000000; stroke-width: 1.5;" width="104" x="198" y="188"/><text fill="#000000" font-family="sans-serif" font-size="14" lengthAdjust="spacingAndGlyphs" textLength="84" x="208" y="207.0439">积分管理模块</text><!--entity sub3--><rect fill="#FEFECE" filter="url(#f1odyp1wg8entu)" height="25.1201" style="stroke: #000000; stroke-width: 1.5;" width="104" x="198" y="338"/><text fill="#000000" font-family="sans-serif" font-size="14" lengthAdjust="spacingAndGlyphs" textLength="84" x="208" y="357.0439">动态管理模块</text><!--entity task--><rect fill="#FEFECE" filter="url(#f1odyp1wg8entu)" height="25.1201" style="stroke: #000000; stroke-width: 1.5;" width="76" x="376" y="8"/><text fill="#000000" font-family="sans-serif" font-size="14" lengthAdjust="spacingAndGlyphs" textLength="56" x="386" y="27.0439">任务管理</text><!--entity clock--><rect fill="#FEFECE" filter="url(#f1odyp1wg8entu)" height="25.1201" style="stroke: #000000; stroke-width: 1.5;" width="90" x="369" y="68"/><text fill="#000000" font-family="sans-serif" font-size="14" lengthAdjust="spacingAndGlyphs" textLength="70" x="379" y="87.0439">番茄钟启停</text><!--entity reward--><rect fill="#FEFECE" filter="url(#f1odyp1wg8entu)" height="25.1201" style="stroke: #000000; stroke-width: 1.5;" width="104" x="362" y="128"/><text fill="#000000" font-family="sans-serif" font-size="14" lengthAdjust="spacingAndGlyphs" textLength="84" x="372" y="147.0439">兑换奖励管理</text><!--entity daily--><rect fill="#FEFECE" filter="url(#f1odyp1wg8entu)" height="25.1201" style="stroke: #000000; stroke-width: 1.5;" width="104" x="362" y="188"/><text fill="#000000" font-family="sans-serif" font-size="14" lengthAdjust="spacingAndGlyphs" textLength="84" x="372" y="207.0439">日常奖惩管理</text><!--entity record--><rect fill="#FEFECE" filter="url(#f1odyp1wg8entu)" height="25.1201" style="stroke: #000000; stroke-width: 1.5;" width="104" x="362" y="248"/><text fill="#000000" font-family="sans-serif" font-size="14" lengthAdjust="spacingAndGlyphs" textLength="84" x="372" y="267.0439">历史记录查询</text><!--entity settings--><rect fill="#FEFECE" filter="url(#f1odyp1wg8entu)" height="25.1201" style="stroke: #000000; stroke-width: 1.5;" width="104" x="362" y="308"/><text fill="#000000" font-family="sans-serif" font-size="14" lengthAdjust="spacingAndGlyphs" textLength="84" x="372" y="327.0439">个人设定管理</text><!--entity class--><rect fill="#FEFECE" filter="url(#f1odyp1wg8entu)" height="25.1201" style="stroke: #000000; stroke-width: 1.5;" width="76" x="376" y="368"/><text fill="#000000" font-family="sans-serif" font-size="14" lengthAdjust="spacingAndGlyphs" textLength="56" x="386" y="387.0439">班级管理</text><!--entity dynamics--><rect fill="#FEFECE" filter="url(#f1odyp1wg8entu)" height="25.1201" style="stroke: #000000; stroke-width: 1.5;" width="104" x="362" y="428"/><text fill="#000000" font-family="sans-serif" font-size="14" lengthAdjust="spacingAndGlyphs" textLength="84" x="372" y="447.0439">班级动态查看</text><!--link sys to sub1--><path d="M91.5024,187.885 C123.852,165.828 190.604,120.316 225.92,96.236 " fill="none" id="sys-sub1" style="stroke: #A80036; stroke-width: 1.0;"/><polygon fill="#A80036" points="230.481,93.126,220.7917,94.8915,226.35,95.9429,225.2987,101.5012,230.481,93.126" style="stroke: #A80036; stroke-width: 1.0;"/><!--link sys to sub2--><path d="M138.036,200.5 C155.962,200.5 175.254,200.5 192.645,200.5 " fill="none" id="sys-sub2" style="stroke: #A80036; stroke-width: 1.0;"/><polygon fill="#A80036" points="197.977,200.5,188.977,196.5,192.977,200.5,188.977,204.5,197.977,200.5" style="stroke: #A80036; stroke-width: 1.0;"/><!--link sys to sub3--><path d="M87.7029,213.031 C119.459,240.096 194.441,304.001 229.849,334.179 " fill="none" id="sys-sub3" style="stroke: #A80036; stroke-width: 1.0;"/><polygon fill="#A80036" points="233.966,337.687,229.7135,328.8035,230.1616,334.4426,224.5225,334.8906,233.966,337.687" style="stroke: #A80036; stroke-width: 1.0;"/><!--link sub1 to task--><path d="M284.961,67.922 C310.989,58.282 346.935,44.969 374.115,34.902 " fill="none" id="sub1-task" style="stroke: #A80036; stroke-width: 1.0;"/><polygon fill="#A80036" points="379.084,33.061,369.2551,32.4344,374.395,34.7969,372.0325,39.9368,379.084,33.061" style="stroke: #A80036; stroke-width: 1.0;"/><!--link sub1 to clock--><path d="M302.258,80.5 C321.831,80.5 344.094,80.5 363.5,80.5 " fill="none" id="sub1-clock" style="stroke: #A80036; stroke-width: 1.0;"/><polygon fill="#A80036" points="368.893,80.5,359.893,76.5,363.893,80.5,359.893,84.5,368.893,80.5" style="stroke: #A80036; stroke-width: 1.0;"/><!--link sub2 to reward--><path d="M284.961,187.922 C310.989,178.282 346.935,164.969 374.115,154.902 " fill="none" id="sub2-reward" style="stroke: #A80036; stroke-width: 1.0;"/><polygon fill="#A80036" points="379.084,153.061,369.2551,152.4344,374.395,154.7969,372.0325,159.9368,379.084,153.061" style="stroke: #A80036; stroke-width: 1.0;"/><!--link sub2 to daily--><path d="M302.258,200.5 C319.479,200.5 338.784,200.5 356.392,200.5 " fill="none" id="sub2-daily" style="stroke: #A80036; stroke-width: 1.0;"/><polygon fill="#A80036" points="361.798,200.5,352.798,196.5,356.798,200.5,352.798,204.5,361.798,200.5" style="stroke: #A80036; stroke-width: 1.0;"/><!--link sub2 to record--><path d="M284.961,213.078 C310.989,222.718 346.935,236.031 374.115,246.098 " fill="none" id="sub2-record" style="stroke: #A80036; stroke-width: 1.0;"/><polygon fill="#A80036" points="379.084,247.939,372.0325,241.0632,374.395,246.2031,369.2551,248.5656,379.084,247.939" style="stroke: #A80036; stroke-width: 1.0;"/><!--link sub3 to settings--><path d="M302.258,341.008 C319.628,337.791 339.117,334.182 356.847,330.899 " fill="none" id="sub3-settings" style="stroke: #A80036; stroke-width: 1.0;"/><polygon fill="#A80036" points="361.798,329.982,352.2202,327.6871,356.8815,330.8921,353.6765,335.5534,361.798,329.982" style="stroke: #A80036; stroke-width: 1.0;"/><!--link sub3 to class--><path d="M302.258,359.9922 C324.399,364.0923 349.982,368.8301 370.978,372.7182 " fill="none" id="sub3-class" style="stroke: #A80036; stroke-width: 1.0;"/><polygon fill="#A80036" points="375.936,373.6362,367.8159,368.0627,371.0198,372.7248,366.3577,375.9287,375.936,373.6362" style="stroke: #A80036; stroke-width: 1.0;"/><!--link sub3 to dynamics--><path d="M273.525,363.0141 C302.942,379.3568 354.392,407.9398 385.905,425.4475 " fill="none" id="sub3-dynamics" style="stroke: #A80036; stroke-width: 1.0;"/><polygon fill="#A80036" points="390.405,427.9474,384.4787,420.0811,386.0338,425.52,380.5949,427.075,390.405,427.9474" style="stroke: #A80036; stroke-width: 1.0;"/><!--
@startuml chap4-modules

left to right direction

card 儿童习惯养成系统 as sys

card 日程管理模块 as sub1
card 积分管理模块 as sub2
card 动态管理模块 as sub3

sys - -> sub1
sys - -> sub2
sys - -> sub3

card 任务管理 as task
card 番茄钟启停 as clock

sub1 - -> task
sub1 - -> clock

card 兑换奖励管理 as reward
card 日常奖惩管理 as daily
card 历史记录查询 as record

sub2 - -> reward
sub2 - -> daily
sub2 - -> record

card 个人设定管理 as settings
card 班级管理 as class
card 班级动态查看 as dynamics

sub3 - -> settings
sub3 - -> class
sub3 - -> dynamics

@enduml

PlantUML version 1.2019.06(Sat May 25 01:10:25 CST 2019)
(GPL source distribution)
Java Runtime: Java(TM) SE Runtime Environment
JVM: Java HotSpot(TM) 64-Bit Server VM
Java Version: 1.8.0_212-b10
Operating System: Windows 10
OS Version: 10.0
Default Encoding: GBK
Language: en
Country: US
--></g></svg>