<?xml version="1.0" encoding="UTF-8" standalone="no"?><svg xmlns="http://www.w3.org/2000/svg" xmlns:xlink="http://www.w3.org/1999/xlink" contentScriptType="application/ecmascript" contentStyleType="text/css" height="639px" preserveAspectRatio="none" style="width:544px;height:639px;" version="1.1" viewBox="0 0 544 639" width="544px" zoomAndPan="magnify"><defs><filter height="300%" id="f1w47amsf5zqni" width="300%" x="-1" y="-1"><feGaussianBlur result="blurOut" stdDeviation="2.0"/><feColorMatrix in="blurOut" result="blurOut2" type="matrix" values="0 0 0 0 0 0 0 0 0 0 0 0 0 0 0 0 0 0 .4 0"/><feOffset dx="4.0" dy="4.0" in="blurOut2" result="blurOut3"/><feBlend in="SourceGraphic" in2="blurOut3" mode="normal"/></filter></defs><g><ellipse cx="357" cy="18" fill="#000000" filter="url(#f1w47amsf5zqni)" rx="10" ry="10" style="stroke: none; stroke-width: 1.0;"/><rect fill="#FEFECE" filter="url(#f1w47amsf5zqni)" height="36.3887" rx="12.5" ry="12.5" style="stroke: #A80036; stroke-width: 1.5;" width="128" x="293" y="68"/><text fill="#000000" font-family="sans-serif" font-size="12" lengthAdjust="spacingAndGlyphs" textLength="108" x="303" y="91.752">加载用户的记录信息</text><rect fill="#FEFECE" filter="url(#f1w47amsf5zqni)" height="52.7773" rx="12.5" ry="12.5" style="stroke: #A80036; stroke-width: 1.5;" width="116" x="252" y="144"/><text fill="#000000" font-family="sans-serif" font-size="12" lengthAdjust="spacingAndGlyphs" textLength="96" x="262" y="167.752">显示记录到界面上</text><text fill="#000000" font-family="sans-serif" font-size="12" lengthAdjust="spacingAndGlyphs" textLength="96" x="262" y="184.1406">可使用搜索栏过滤</text><rect fill="#FEFECE" filter="url(#f1w47amsf5zqni)" height="52.7773" rx="12.5" ry="12.5" style="stroke: #A80036; stroke-width: 1.5;" width="128" x="243" y="237"/><text fill="#000000" font-family="sans-serif" font-size="12" lengthAdjust="spacingAndGlyphs" textLength="108" x="253" y="260.752">进入兑换奖励页面或</text><text fill="#000000" font-family="sans-serif" font-size="12" lengthAdjust="spacingAndGlyphs" textLength="72" x="271" y="277.1406">日常奖惩页面</text><rect fill="#FEFECE" filter="url(#f1w47amsf5zqni)" height="52.7773" rx="12.5" ry="12.5" style="stroke: #A80036; stroke-width: 1.5;" width="92" x="180" y="330"/><text fill="#000000" font-family="sans-serif" font-size="12" lengthAdjust="spacingAndGlyphs" textLength="72" x="190" y="353.752">加载奖励列表</text><text fill="#000000" font-family="sans-serif" font-size="12" lengthAdjust="spacingAndGlyphs" textLength="60" x="196" y="370.1406">或奖惩列表</text><rect fill="#FEFECE" filter="url(#f1w47amsf5zqni)" height="52.7773" rx="12.5" ry="12.5" style="stroke: #A80036; stroke-width: 1.5;" width="92" x="103" y="423"/><text fill="#000000" font-family="sans-serif" font-size="12" lengthAdjust="spacingAndGlyphs" textLength="72" x="113" y="446.752">显示奖励列表</text><text fill="#000000" font-family="sans-serif" font-size="12" lengthAdjust="spacingAndGlyphs" textLength="60" x="119" y="463.1406">或奖惩列表</text><rect fill="#FEFECE" filter="url(#f1w47amsf5zqni)" height="36.3887" rx="12.5" ry="12.5" style="stroke: #A80036; stroke-width: 1.5;" width="152" x="43" y="516"/><text fill="#000000" font-family="sans-serif" font-size="12" lengthAdjust="spacingAndGlyphs" textLength="132" x="53" y="539.752">进入奖励或奖惩添加页面</text><rect fill="#FEFECE" filter="url(#f1w47amsf5zqni)" height="36.3887" rx="12.5" ry="12.5" style="stroke: #A80036; stroke-width: 1.5;" width="104" x="6" y="592"/><text fill="#000000" font-family="sans-serif" font-size="12" lengthAdjust="spacingAndGlyphs" textLength="84" x="16" y="615.752">添加奖励或奖惩</text><rect fill="#FEFECE" filter="url(#f1w47amsf5zqni)" height="36.3887" rx="12.5" ry="12.5" style="stroke: #A80036; stroke-width: 1.5;" width="152" x="257" y="516"/><text fill="#000000" font-family="sans-serif" font-size="12" lengthAdjust="spacingAndGlyphs" textLength="132" x="267" y="539.752">进入奖励或奖惩详情页面</text><rect fill="#FEFECE" filter="url(#f1w47amsf5zqni)" height="36.3887" rx="12.5" ry="12.5" style="stroke: #A80036; stroke-width: 1.5;" width="104" x="175" y="592"/><text fill="#000000" font-family="sans-serif" font-size="12" lengthAdjust="spacingAndGlyphs" textLength="84" x="185" y="615.752">保存奖励或奖惩</text><rect fill="#FEFECE" filter="url(#f1w47amsf5zqni)" height="36.3887" rx="12.5" ry="12.5" style="stroke: #A80036; stroke-width: 1.5;" width="104" x="303" y="592"/><text fill="#000000" font-family="sans-serif" font-size="12" lengthAdjust="spacingAndGlyphs" textLength="84" x="313" y="615.752">删除奖励或奖惩</text><rect fill="#FEFECE" filter="url(#f1w47amsf5zqni)" height="36.3887" rx="12.5" ry="12.5" style="stroke: #A80036; stroke-width: 1.5;" width="104" x="429" y="592"/><text fill="#000000" font-family="sans-serif" font-size="12" lengthAdjust="spacingAndGlyphs" textLength="84" x="439" y="615.752">记录奖励或奖惩</text><!--link start to 加载用户的记录信息--><path d="M357,28.177 C357,37.023 357,50.76 357,62.511 " fill="none" id="start-加载用户的记录信息" style="stroke: #A80036; stroke-width: 1.0;"/><polygon fill="#A80036" points="357,67.745,361,58.745,357,62.745,353,58.745,357,67.745" style="stroke: #A80036; stroke-width: 1.0;"/><!--link 加载用户的记录信息 to 显示记录到界面上\n可使用搜索栏过滤--><path d="M347.262,104.094 C341.47,114.261 333.956,127.45 327.194,139.318 " fill="none" id="加载用户的记录信息-显示记录到界面上\n可使用搜索栏过滤" style="stroke: #A80036; stroke-width: 1.0;"/><polygon fill="#A80036" points="324.547,143.965,332.4784,138.1261,327.0226,139.6209,325.5278,134.1651,324.547,143.965" style="stroke: #A80036; stroke-width: 1.0;"/><!--link 显示记录到界面上\n可使用搜索栏过滤 to 进入兑换奖励页面或\n日常奖惩页面--><path d="M309.148,197.334 C308.794,208.087 308.379,220.656 308.01,231.871 " fill="none" id="显示记录到界面上\n可使用搜索栏过滤-进入兑换奖励页面或\n日常奖惩页面" style="stroke: #A80036; stroke-width: 1.0;"/><polygon fill="#A80036" points="307.843,236.917,312.1366,228.0533,308.0073,231.9197,304.1409,227.7904,307.843,236.917" style="stroke: #A80036; stroke-width: 1.0;"/><!--link 进入兑换奖励页面或\n日常奖惩页面 to 加载奖励列表\n或奖惩列表--><path d="M284.005,290.334 C274.088,301.475 262.437,314.564 252.189,326.078 " fill="none" id="进入兑换奖励页面或\n日常奖惩页面-加载奖励列表\n或奖惩列表" style="stroke: #A80036; stroke-width: 1.0;"/><polygon fill="#A80036" points="248.772,329.917,257.7448,325.8563,252.0974,326.1831,251.7705,320.5357,248.772,329.917" style="stroke: #A80036; stroke-width: 1.0;"/><!--link 加载奖励列表\n或奖惩列表 to 显示奖励列表\n或奖惩列表--><path d="M204.141,383.334 C194.714,394.475 183.638,407.564 173.896,419.078 " fill="none" id="加载奖励列表\n或奖惩列表-显示奖励列表\n或奖惩列表" style="stroke: #A80036; stroke-width: 1.0;"/><polygon fill="#A80036" points="170.647,422.917,179.5141,418.6304,173.8768,419.1001,173.4071,413.4628,170.647,422.917" style="stroke: #A80036; stroke-width: 1.0;"/><!--link 显示奖励列表\n或奖惩列表 to 进入奖励或奖惩添加页面--><path d="M139.672,476.151 C135.615,487.308 130.909,500.251 127.012,510.966 " fill="none" id="显示奖励列表\n或奖惩列表-进入奖励或奖惩添加页面" style="stroke: #A80036; stroke-width: 1.0;"/><polygon fill="#A80036" points="125.284,515.718,132.1189,508.6268,126.9927,511.019,124.6005,505.8929,125.284,515.718" style="stroke: #A80036; stroke-width: 1.0;"/><!--link 进入奖励或奖惩添加页面 to 添加奖励或奖惩--><path d="M104.8521,552.1631 C96.0752,562.8104 84.7335,576.5692 75.4074,587.8828 " fill="none" id="进入奖励或奖惩添加页面-添加奖励或奖惩" style="stroke: #A80036; stroke-width: 1.0;"/><polygon fill="#A80036" points="72.0712,591.93,80.8824,587.5297,75.2516,588.0719,74.7094,582.4411,72.0712,591.93" style="stroke: #A80036; stroke-width: 1.0;"/><!--link 添加奖励或奖惩 to 加载奖励列表\n或奖惩列表--><path d="M47.6324,591.7906 C37.691,573.0716 25.2519,542.3017 33,516 C46.8998,468.816 56.271,455.719 93,423 C116.701,401.886 148.432,385.914 174.956,375.03 " fill="none" id="添加奖励或奖惩-加载奖励列表\n或奖惩列表" style="stroke: #A80036; stroke-width: 1.0;"/><polygon fill="#A80036" points="179.845,373.057,170.002,372.7169,175.2086,374.9287,172.9968,380.1353,179.845,373.057" style="stroke: #A80036; stroke-width: 1.0;"/><!--link 显示奖励列表\n或奖惩列表 to 进入奖励或奖惩详情页面--><path d="M195.431,471.318 C224.516,484.359 261.73,501.045 290.117,513.773 " fill="none" id="显示奖励列表\n或奖惩列表-进入奖励或奖惩详情页面" style="stroke: #A80036; stroke-width: 1.0;"/><polygon fill="#A80036" points="294.952,515.94,288.376,508.6081,290.3896,513.8945,285.1032,515.908,294.952,515.94" style="stroke: #A80036; stroke-width: 1.0;"/><!--link 进入奖励或奖惩详情页面 to 保存奖励或奖惩--><path d="M308.415,552.1631 C292.628,563.184 272.066,577.5386 255.556,589.0644 " fill="none" id="进入奖励或奖惩详情页面-保存奖励或奖惩" style="stroke: #A80036; stroke-width: 1.0;"/><polygon fill="#A80036" points="251.452,591.93,261.1215,590.0592,255.5521,589.0684,256.5429,583.499,251.452,591.93" style="stroke: #A80036; stroke-width: 1.0;"/><!--link 保存奖励或奖惩 to 加载奖励列表\n或奖惩列表--><path d="M226.932,591.8402 C226.765,549.9441 226.336,441.96 226.123,388.47 " fill="none" id="保存奖励或奖惩-加载奖励列表\n或奖惩列表" style="stroke: #A80036; stroke-width: 1.0;"/><polygon fill="#A80036" points="226.103,383.468,222.139,392.4839,226.123,388.468,230.139,392.4519,226.103,383.468" style="stroke: #A80036; stroke-width: 1.0;"/><!--link 进入奖励或奖惩详情页面 to 删除奖励或奖惩--><path d="M338.103,552.1631 C341.185,562.5302 345.144,575.8473 348.455,586.9846 " fill="none" id="进入奖励或奖惩详情页面-删除奖励或奖惩" style="stroke: #A80036; stroke-width: 1.0;"/><polygon fill="#A80036" points="349.925,591.93,351.1945,582.1633,348.5002,587.1373,343.5262,584.443,349.925,591.93" style="stroke: #A80036; stroke-width: 1.0;"/><!--link 删除奖励或奖惩 to 加载奖励列表\n或奖惩列表--><path d="M383.476,591.8692 C396.932,582.0595 411.633,568.4272 419,552 C425.547,537.401 425.838,530.465 419,516 C389.828,454.293 323.553,408.542 276.837,382.457 " fill="none" id="删除奖励或奖惩-加载奖励列表\n或奖惩列表" style="stroke: #A80036; stroke-width: 1.0;"/><polygon fill="#A80036" points="272.379,379.994,278.3209,387.8486,276.755,382.4127,282.1909,380.8469,272.379,379.994" style="stroke: #A80036; stroke-width: 1.0;"/><!--link 进入奖励或奖惩详情页面 to 记录奖励或奖惩--><path d="M367.326,552.1631 C389.742,563.3708 419.052,578.0262 442.296,589.648 " fill="none" id="进入奖励或奖惩详情页面-记录奖励或奖惩" style="stroke: #A80036; stroke-width: 1.0;"/><polygon fill="#A80036" points="446.86,591.93,440.5985,584.3278,442.3877,589.6942,437.0213,591.4834,446.86,591.93" style="stroke: #A80036; stroke-width: 1.0;"/><!--link 记录奖励或奖惩 to 加载用户的记录信息--><path d="M481.179,591.8783 C481.466,562.8125 482,501.958 482,450.5 C482,262.5 482,262.5 482,262.5 C482,195.73 421.23,136.75 384.434,107.158 " fill="none" id="记录奖励或奖惩-加载用户的记录信息" style="stroke: #A80036; stroke-width: 1.0;"/><polygon fill="#A80036" points="380.512,104.041,385.0718,112.7707,384.4273,107.1507,390.0473,106.5062,380.512,104.041" style="stroke: #A80036; stroke-width: 1.0;"/><!--
@startuml chap5-tomato

(*) - -> "加载用户的记录信息"
  - -> "显示记录到界面上\n可使用搜索栏过滤"
  - -> "进入兑换奖励页面或\n日常奖惩页面"
  - -> "加载奖励列表\n或奖惩列表"
  - -> "显示奖励列表\n或奖惩列表"

"显示奖励列表\n或奖惩列表" - -> "进入奖励或奖惩添加页面"
  - -> "添加奖励或奖惩"
  - -> "加载奖励列表\n或奖惩列表"
"显示奖励列表\n或奖惩列表" - -> "进入奖励或奖惩详情页面"

"进入奖励或奖惩详情页面" - -> "保存奖励或奖惩"
  - -> "加载奖励列表\n或奖惩列表"
"进入奖励或奖惩详情页面" - -> "删除奖励或奖惩"
  - -> "加载奖励列表\n或奖惩列表"
"进入奖励或奖惩详情页面" - -> "记录奖励或奖惩"
  - -> "加载用户的记录信息"

@enduml

PlantUML version 1.2019.06(Sat May 25 01:10:25 CST 2019)
(GPL source distribution)
Java Runtime: Java(TM) SE Runtime Environment
JVM: Java HotSpot(TM) 64-Bit Server VM
Java Version: 1.8.0_212-b10
Operating System: Windows 10
OS Version: 10.0
Default Encoding: GBK
Language: en
Country: US
--></g></svg>