<?xml version="1.0" encoding="UTF-8" standalone="no"?><svg xmlns="http://www.w3.org/2000/svg" xmlns:xlink="http://www.w3.org/1999/xlink" contentScriptType="application/ecmascript" contentStyleType="text/css" height="582px" preserveAspectRatio="none" style="width:402px;height:582px;" version="1.1" viewBox="0 0 402 582" width="402px" zoomAndPan="magnify"><defs><filter height="300%" id="f1dpjimibaatuc" width="300%" x="-1" y="-1"><feGaussianBlur result="blurOut" stdDeviation="2.0"/><feColorMatrix in="blurOut" result="blurOut2" type="matrix" values="0 0 0 0 0 0 0 0 0 0 0 0 0 0 0 0 0 0 .4 0"/><feOffset dx="4.0" dy="4.0" in="blurOut2" result="blurOut3"/><feBlend in="SourceGraphic" in2="blurOut3" mode="normal"/></filter></defs><g><ellipse cx="319" cy="18" fill="#000000" filter="url(#f1dpjimibaatuc)" rx="10" ry="10" style="stroke: none; stroke-width: 1.0;"/><rect fill="#FEFECE" filter="url(#f1dpjimibaatuc)" height="36.3887" rx="12.5" ry="12.5" style="stroke: #A80036; stroke-width: 1.5;" width="128" x="255" y="69"/><text fill="#000000" font-family="sans-serif" font-size="12" lengthAdjust="spacingAndGlyphs" textLength="108" x="265" y="92.752">加载用户的任务信息</text><polygon fill="#FEFECE" filter="url(#f1dpjimibaatuc)" points="259,146,271,158,259,170,247,158,259,146" style="stroke: #A80036; stroke-width: 1.5;"/><rect fill="#FEFECE" filter="url(#f1dpjimibaatuc)" height="36.3887" rx="12.5" ry="12.5" style="stroke: #A80036; stroke-width: 1.5;" width="116" x="201" y="227"/><text fill="#000000" font-family="sans-serif" font-size="12" lengthAdjust="spacingAndGlyphs" textLength="96" x="211" y="250.752">提示用户添加任务</text><rect fill="#FEFECE" filter="url(#f1dpjimibaatuc)" height="36.3887" rx="12.5" ry="12.5" style="stroke: #A80036; stroke-width: 1.5;" width="116" x="201" y="304"/><text fill="#000000" font-family="sans-serif" font-size="12" lengthAdjust="spacingAndGlyphs" textLength="96" x="211" y="327.752">进入任务添加页面</text><rect fill="#FEFECE" filter="url(#f1dpjimibaatuc)" height="36.3887" rx="12.5" ry="12.5" style="stroke: #A80036; stroke-width: 1.5;" width="68" x="291" y="381"/><text fill="#000000" font-family="sans-serif" font-size="12" lengthAdjust="spacingAndGlyphs" textLength="48" x="301" y="404.752">添加任务</text><rect fill="#FEFECE" filter="url(#f1dpjimibaatuc)" height="36.3887" rx="12.5" ry="12.5" style="stroke: #A80036; stroke-width: 1.5;" width="116" x="65" y="227"/><text fill="#000000" font-family="sans-serif" font-size="12" lengthAdjust="spacingAndGlyphs" textLength="96" x="75" y="250.752">展示任务到界面上</text><rect fill="#FEFECE" filter="url(#f1dpjimibaatuc)" height="36.3887" rx="12.5" ry="12.5" style="stroke: #A80036; stroke-width: 1.5;" width="68" x="89" y="304"/><text fill="#000000" font-family="sans-serif" font-size="12" lengthAdjust="spacingAndGlyphs" textLength="48" x="99" y="327.752">日程视图</text><rect fill="#FEFECE" filter="url(#f1dpjimibaatuc)" height="36.3887" rx="12.5" ry="12.5" style="stroke: #A80036; stroke-width: 1.5;" width="104" x="37" y="381"/><text fill="#000000" font-family="sans-serif" font-size="12" lengthAdjust="spacingAndGlyphs" textLength="84" x="47" y="404.752">进入番茄钟页面</text><rect fill="#FEFECE" filter="url(#f1dpjimibaatuc)" height="36.3887" rx="12.5" ry="12.5" style="stroke: #A80036; stroke-width: 1.5;" width="68" x="161" y="381"/><text fill="#000000" font-family="sans-serif" font-size="12" lengthAdjust="spacingAndGlyphs" textLength="48" x="171" y="404.752">一周视图</text><rect fill="#FEFECE" filter="url(#f1dpjimibaatuc)" height="36.3887" rx="12.5" ry="12.5" style="stroke: #A80036; stroke-width: 1.5;" width="152" x="152" y="458"/><text fill="#000000" font-family="sans-serif" font-size="12" lengthAdjust="spacingAndGlyphs" textLength="132" x="162" y="481.752">点击任务卡片进入详情页</text><rect fill="#FEFECE" filter="url(#f1dpjimibaatuc)" height="36.3887" rx="12.5" ry="12.5" style="stroke: #A80036; stroke-width: 1.5;" width="68" x="61" y="535"/><text fill="#000000" font-family="sans-serif" font-size="12" lengthAdjust="spacingAndGlyphs" textLength="48" x="71" y="558.752">编辑任务</text><rect fill="#FEFECE" filter="url(#f1dpjimibaatuc)" height="36.3887" rx="12.5" ry="12.5" style="stroke: #A80036; stroke-width: 1.5;" width="68" x="237" y="535"/><text fill="#000000" font-family="sans-serif" font-size="12" lengthAdjust="spacingAndGlyphs" textLength="48" x="247" y="558.752">删除任务</text><!--link start to 加载用户的任务信息--><path d="M319,28.036 C319,37.162 319,51.614 319,63.804 " fill="none" id="start-加载用户的任务信息" style="stroke: #A80036; stroke-width: 1.0;"/><polygon fill="#A80036" points="319,68.868,323,59.868,319,63.868,315,59.868,319,68.868" style="stroke: #A80036; stroke-width: 1.0;"/><!--link 加载用户的任务信息 to #5--><path d="M304.169,105.056 C292.772,118.162 277.412,135.826 267.862,146.809 " fill="none" id="加载用户的任务信息-#5" style="stroke: #A80036; stroke-width: 1.0;"/><polygon fill="#A80036" points="264.389,150.803,273.3135,146.6372,267.6703,147.0303,267.2772,141.3871,264.389,150.803" style="stroke: #A80036; stroke-width: 1.0;"/><text fill="#000000" font-family="sans-serif" font-size="11" lengthAdjust="spacingAndGlyphs" textLength="73" x="278.7883" y="143.3608">this.state.tasks</text><!--link #5 to 提示用户添加任务--><path d="M259,170.112 C259,183.05 259,204.755 259,221.303 " fill="none" id="#5-提示用户添加任务" style="stroke: #A80036; stroke-width: 1.0;"/><polygon fill="#A80036" points="259,226.697,263,217.697,259,221.697,255,217.697,259,226.697" style="stroke: #A80036; stroke-width: 1.0;"/><text fill="#000000" font-family="sans-serif" font-size="11" lengthAdjust="spacingAndGlyphs" textLength="22" x="260" y="203.606">为空</text><!--link 提示用户添加任务 to 进入任务添加页面--><path d="M259,263.019 C259,273.588 259,287.288 259,298.717 " fill="none" id="提示用户添加任务-进入任务添加页面" style="stroke: #A80036; stroke-width: 1.0;"/><polygon fill="#A80036" points="259,303.789,263,294.789,259,298.789,255,294.789,259,303.789" style="stroke: #A80036; stroke-width: 1.0;"/><!--link 进入任务添加页面 to 添加任务--><path d="M273.976,340.019 C283.612,350.969 296.206,365.279 306.47,376.944 " fill="none" id="进入任务添加页面-添加任务" style="stroke: #A80036; stroke-width: 1.0;"/><polygon fill="#A80036" points="309.854,380.789,306.9105,371.3903,306.5506,377.0357,300.9052,376.6758,309.854,380.789" style="stroke: #A80036; stroke-width: 1.0;"/><!--link 添加任务 to 加载用户的任务信息--><path d="M333.434,380.878 C339.998,365.964 348,343.565 348,323 C348,157 348,157 348,157 C348,140.219 340.62,122.81 333.306,109.677 " fill="none" id="添加任务-加载用户的任务信息" style="stroke: #A80036; stroke-width: 1.0;"/><polygon fill="#A80036" points="330.628,105.041,331.664,114.8352,333.1281,109.3711,338.5922,110.8351,330.628,105.041" style="stroke: #A80036; stroke-width: 1.0;"/><!--link #5 to 展示任务到界面上--><path d="M252.069,163.332 C234.476,174.328 187.208,203.87 155.03,223.981 " fill="none" id="#5-展示任务到界面上" style="stroke: #A80036; stroke-width: 1.0;"/><polygon fill="#A80036" points="150.398,226.876,160.15,225.498,154.638,224.226,155.91,218.714,150.398,226.876" style="stroke: #A80036; stroke-width: 1.0;"/><text fill="#000000" font-family="sans-serif" font-size="11" lengthAdjust="spacingAndGlyphs" textLength="22" x="208" y="203.606">非空</text><!--link 展示任务到界面上 to 进入任务添加页面--><path d="M153.861,263.019 C174.493,274.397 201.707,289.405 223.278,301.3 " fill="none" id="展示任务到界面上-进入任务添加页面" style="stroke: #A80036; stroke-width: 1.0;"/><polygon fill="#A80036" points="227.791,303.789,221.843,295.939,223.4131,301.3737,217.9785,302.9437,227.791,303.789" style="stroke: #A80036; stroke-width: 1.0;"/><!--link 展示任务到界面上 to 日程视图--><path d="M116.599,263.019 C115.335,273.588 115.161,287.288 116.078,298.717 " fill="none" id="展示任务到界面上-日程视图" style="stroke: #A80036; stroke-width: 1.0;"/><polygon fill="#A80036" points="116.576,303.789,119.6774,294.4412,116.0874,298.8129,111.7157,295.223,116.576,303.789" style="stroke: #A80036; stroke-width: 1.0;"/><!--link 日程视图 to 展示任务到界面上--><path d="M129.424,303.789 C130.675,293.182 130.835,279.477 129.905,268.076 " fill="none" id="日程视图-展示任务到界面上" style="stroke: #A80036; stroke-width: 1.0;"/><polygon fill="#A80036" points="129.401,263.019,126.3159,272.3722,129.8982,267.9942,134.2762,271.5766,129.401,263.019" style="stroke: #A80036; stroke-width: 1.0;"/><!--link 日程视图 to 进入番茄钟页面--><path d="M108.884,340.019 C102.7739,350.683 96.329,364.535 92.0651,376.025 " fill="none" id="日程视图-进入番茄钟页面" style="stroke: #A80036; stroke-width: 1.0;"/><polygon fill="#A80036" points="90.3785,380.789,97.1527,373.6398,92.0471,376.0756,89.6113,370.9701,90.3785,380.789" style="stroke: #A80036; stroke-width: 1.0;"/><!--link 进入番茄钟页面 to 日程视图--><path d="M103.226,380.789 C109.34,370.087 115.774,356.23 120.011,344.768 " fill="none" id="进入番茄钟页面-日程视图" style="stroke: #A80036; stroke-width: 1.0;"/><polygon fill="#A80036" points="121.686,340.019,114.9207,347.1766,120.0232,344.7344,122.4654,349.837,121.686,340.019" style="stroke: #A80036; stroke-width: 1.0;"/><!--link 日程视图 to 一周视图--><path d="M132.937,340.019 C142.219,351.064 155.975,365.529 168.286,377.247 " fill="none" id="日程视图-一周视图" style="stroke: #A80036; stroke-width: 1.0;"/><polygon fill="#A80036" points="172.054,380.789,168.236,371.7103,168.4109,377.3644,162.7567,377.5393,172.054,380.789" style="stroke: #A80036; stroke-width: 1.0;"/><!--link 一周视图 to 日程视图--><path d="M184.901,380.789 C175.567,369.705 161.794,355.236 149.5,343.549 " fill="none" id="一周视图-日程视图" style="stroke: #A80036; stroke-width: 1.0;"/><polygon fill="#A80036" points="145.739,340.019,149.5643,349.0946,149.3849,343.4406,155.0389,343.2612,145.739,340.019" style="stroke: #A80036; stroke-width: 1.0;"/><!--link 日程视图 to 点击任务卡片进入详情页--><path d="M157.061,329.82 C184.47,337.295 221.244,352.27 239,381 C252.515,402.868 245.402,433.117 237.826,453.334 " fill="none" id="日程视图-点击任务卡片进入详情页" style="stroke: #A80036; stroke-width: 1.0;"/><polygon fill="#A80036" points="236.006,457.994,243.0068,451.0666,237.8255,453.3368,235.5553,448.1555,236.006,457.994" style="stroke: #A80036; stroke-width: 1.0;"/><!--link 一周视图 to 点击任务卡片进入详情页--><path d="M202.488,417.019 C207.181,427.683 213.275,441.535 218.331,453.025 " fill="none" id="一周视图-点击任务卡片进入详情页" style="stroke: #A80036; stroke-width: 1.0;"/><polygon fill="#A80036" points="220.427,457.789,220.4644,447.9402,218.4137,453.2123,213.1416,451.1615,220.427,457.789" style="stroke: #A80036; stroke-width: 1.0;"/><!--link 点击任务卡片进入详情页 to 编辑任务--><path d="M197.82,494.0187 C177.643,505.3971 151.029,520.4045 129.934,532.3003 " fill="none" id="点击任务卡片进入详情页-编辑任务" style="stroke: #A80036; stroke-width: 1.0;"/><polygon fill="#A80036" points="125.521,534.7891,135.325,533.8506,129.8758,532.3323,131.3941,526.883,125.521,534.7891" style="stroke: #A80036; stroke-width: 1.0;"/><!--link 编辑任务 to 加载用户的任务信息--><path d="M60.8448,539.1849 C35.7463,527.2995 6,506.9051 6,477 C6,157 6,157 6,157 C6,107.439 157.548,93.442 249.741,89.512 " fill="none" id="编辑任务-加载用户的任务信息" style="stroke: #A80036; stroke-width: 1.0;"/><polygon fill="#A80036" points="254.904,89.3,245.747,85.6737,249.9082,89.5057,246.0762,93.6669,254.904,89.3" style="stroke: #A80036; stroke-width: 1.0;"/><!--link 点击任务卡片进入详情页 to 删除任务--><path d="M237.757,494.0187 C243.926,504.7782 251.955,518.7826 258.577,530.3326 " fill="none" id="点击任务卡片进入详情页-删除任务" style="stroke: #A80036; stroke-width: 1.0;"/><polygon fill="#A80036" points="261.132,534.7891,260.1267,524.9917,258.6455,530.4512,253.186,528.97,261.132,534.7891" style="stroke: #A80036; stroke-width: 1.0;"/><!--link 删除任务 to 加载用户的任务信息--><path d="M305.101,545.6608 C340.265,536.9211 390,517.4161 390,477 C390,157 390,157 390,157 C390,136.242 374.2,119.714 357.506,108.044 " fill="none" id="删除任务-加载用户的任务信息" style="stroke: #A80036; stroke-width: 1.0;"/><polygon fill="#A80036" points="353.252,105.182,358.486,113.525,357.4003,107.9733,362.952,106.8876,353.252,105.182" style="stroke: #A80036; stroke-width: 1.0;"/><!--
@startuml chap5-task

(*) - -> "加载用户的任务信息"

if "this.state.tasks" then
  - ->[为空] "提示用户添加任务"
  - -> "进入任务添加页面"
  - -> "添加任务"
  - -> "加载用户的任务信息"
else
  - ->[非空] "展示任务到界面上"
  - -> "进入任务添加页面"
endif

"展示任务到界面上" - -> "日程视图"
- -> "展示任务到界面上"

"日程视图" - -> "进入番茄钟页面"
- -> "日程视图"

"日程视图" - -> "一周视图"
"一周视图" - -> "日程视图"

"日程视图" - -> "点击任务卡片进入详情页"
"一周视图" - -> "点击任务卡片进入详情页"

"点击任务卡片进入详情页" - -> "编辑任务"
- -> "加载用户的任务信息"

"点击任务卡片进入详情页" - -> "删除任务"
- -> "加载用户的任务信息"

@enduml

PlantUML version 1.2019.06(Sat May 25 01:10:25 CST 2019)
(GPL source distribution)
Java Runtime: Java(TM) SE Runtime Environment
JVM: Java HotSpot(TM) 64-Bit Server VM
Java Version: 1.8.0_212-b10
Operating System: Windows 10
OS Version: 10.0
Default Encoding: GBK
Language: en
Country: US
--></g></svg>